<?xml version="1.0" encoding="UTF-8"?>
<svg width="1080px" height="960px" viewBox="0 0 90 80" version="1.1" 
    xmlns="http://www.w3.org/2000/svg" 
    xmlns:xlink="http://www.w3.org/1999/xlink">

    <g id="logo" fill="#9c88ff" fill-rule="nonzero">
        <path d="M83.047,10.141 L54.466,4.557 C49.811,3.648 45.284,6.695 44.375,11.35 L34.206,63.409 C33.297,68.064 36.344,72.591 40.999,73.5 L69.58,79.083 C74.235,79.992 78.762,76.945 79.671,72.29 L89.84,20.232 C90.749,15.577 87.702,11.05 83.047,10.141 Z M87.026,19.681 L76.856,71.74 C76.251,74.835 73.224,76.873 70.129,76.269 L41.548,70.686 C38.453,70.081 36.415,67.054 37.019,63.959 L47.189,11.9 C47.794,8.805 50.821,6.767 53.916,7.371 L82.497,12.954 C85.592,13.559 87.63,16.586 87.026,19.681 Z" id="Shape"></path>
        <path d="M33.716,71.07 C32.108,68.681 31.526,65.813 32.077,62.992 L42.246,10.935 C42.711,8.555 43.952,6.49 45.666,4.965 C43.72,1.827 39.93,0.11 36.137,0.985 L6.877,7.733 C2.111,8.832 -0.871,13.603 0.228,18.369 L12.52,71.663 C13.619,76.428 18.39,79.411 23.156,78.312 L38.178,74.847 C36.387,74.032 34.844,72.746 33.716,71.07 Z" id="Shape"></path>
    </g>
</svg>